<svg xmlns="http://www.w3.org/2000/svg" viewBox="0 0 32 32"><path fill="#1b84fa" d="M13.531 15.086c0 .656-.409 1.189-.914 1.189s-.914-.532-.914-1.189c0-.656.409-1.189.914-1.189s.914.532.914 1.189zM20.297 15.086c0 .656-.409 1.189-.914 1.189s-.914-.532-.914-1.189c0-.656.409-1.189.914-1.189s.914.532.914 1.189zM6.949 22.309H4.298a1.736 1.736 0 0 1-1.737-1.737v-6.217c0-.914.731-1.737 1.737-1.737h2.651c.914 0 1.737.731 1.737 1.737v6.217c0 1.006-.731 1.737-1.737 1.737zM4.297 14.08a.394.394 0 0 0-.366.366v6.217c0 .183.183.366.366.366h2.651a.394.394 0 0 0 .366-.366v-6.217a.394.394 0 0 0-.366-.366H4.297zm23.406 8.229h-2.651a1.736 1.736 0 0 1-1.737-1.737v-6.217c0-.914.731-1.737 1.737-1.737h2.651c.914 0 1.737.731 1.737 1.737v6.217a1.736 1.736 0 0 1-1.737 1.737zm-2.652-8.229a.394.394 0 0 0-.366.366v6.217c0 .183.183.366.366.366h2.651a.394.394 0 0 0 .366-.366v-6.217a.394.394 0 0 0-.366-.366h-2.651z" style="fill:var(--color1, #1b84fa)"/><path fill="#1b84fa" d="M6.949 21.669H4.298a1.015 1.015 0 0 1-1.006-1.006v-6.217c0-.549.457-1.006 1.006-1.006h2.651c.549 0 1.006.457 1.006 1.006v6.217c0 .549-.457 1.006-1.006 1.006zm20.754 0h-2.651a1.015 1.015 0 0 1-1.006-1.006v-6.217c0-.549.457-1.006 1.006-1.006h2.651c.549 0 1.006.457 1.006 1.006v6.217c0 .549-.457 1.006-1.006 1.006z" opacity=".3" style="fill:var(--color1, #1b84fa)"/><path fill="#1b84fa" d="M26.331 13.897c-.366 0-.731-.091-.731-.549v-.731a9.689 9.689 0 0 0-2.834-6.857c-.274-.274-.64-.64-1.006-.914h-.091c-1.646-1.28-3.657-1.92-5.76-1.92-4.48 0-8.32 3.017-9.417 7.406-.091.731-.183 1.554-.183 2.286v.731c0 .366-.274.731-.731.731s-.731-.274-.731-.731v-.731c0-.914.091-1.829.366-2.651A10.964 10.964 0 0 1 15.91 1.556c2.377 0 4.663.731 6.583 2.194 0 0 .091 0 .091.091.457.366.823.64 1.189 1.006 2.103 2.103 3.2 4.846 3.2 7.771v.731c.091.457-.274.549-.64.549zm-5.942 14.446c-.366 0-.731-.274-.731-.731s.274-.731.731-.731a5.307 5.307 0 0 0 5.303-5.303c0-.366.274-.274.731-.274s.731-.183.731.274c-.091 3.749-3.109 6.766-6.766 6.766z" style="fill:var(--color1, #1b84fa)"/><path fill="#1b84fa" d="M18.194 30.446c-1.463 0-2.743-1.189-2.743-2.743 0-1.463 1.189-2.743 2.743-2.743 1.463 0 2.743 1.189 2.743 2.743 0 1.463-1.189 2.743-2.743 2.743zm0-4.115c-.731 0-1.371.64-1.371 1.371s.64 1.371 1.371 1.371 1.371-.64 1.371-1.371c0-.823-.64-1.371-1.371-1.371zM16 22.949c-1.737 0-3.291-.64-4.48-1.829-.274-.274-.274-.731 0-1.006s.731-.274 1.006 0c.914.914 2.194 1.463 3.566 1.463s2.56-.549 3.566-1.463c.274-.274.731-.274 1.006 0s.274.731 0 1.006c-1.371 1.097-2.926 1.829-4.663 1.829zM8.96 11.154c-1.097 0-2.103-.091-3.2-.274-.183 0-.366-.183-.457-.274-.091-.183-.091-.366-.091-.549a10.964 10.964 0 0 1 10.697-8.411c2.377 0 4.663.731 6.583 2.194.274.091.366.274.366.457s0 .366-.183.549c-3.383 3.931-8.411 6.309-13.714 6.309zM6.857 9.6c.731.091 1.463.183 2.194.183 4.663 0 9.051-1.92 12.16-5.303C19.657 3.474 17.92 3.017 16 3.017c-4.206 0-7.863 2.651-9.143 6.583z" style="fill:var(--color1, #1b84fa)"/></svg>