<svg xmlns="http://www.w3.org/2000/svg" viewBox="0 0 32 32"><path fill="#bcdafd" d="M10.2 15H13v2.8h-2.8zm4.4 0h2.8v2.8h-2.8zm4.44 0h2.8v2.8h-2.8zm-8.84 4.32H13v2.8h-2.8zm4.4 0h2.8v2.8h-2.8zm4.44 0h2.8v2.8h-2.8zm4.68-8.44v2.2H8.28v-2.2c0-.64.52-1.16 1.16-1.16h1.2v.84c0 .52.4.92.92.92s.92-.4.92-.92v-.84h7v.84c0 .52.4.92.92.92s.92-.4.92-.92v-.84h1.2c.68.04 1.2.52 1.2 1.16z" style="fill:var(--color2, #bcdafd)"/><path fill="#1b84fa" d="M23.72 13.56H8.28c-.24 0-.44-.2-.44-.44v-2.2c0-.88.72-1.6 1.6-1.6h1.2c.24 0 .44.2.44.44v.84c0 .24.2.48.48.48s.48-.2.48-.48v-.84c0-.24.2-.44.44-.44h7c.24 0 .44.2.44.44v.84c0 .24.2.48.48.48.24 0 .48-.2.48-.48v-.84c0-.24.2-.44.44-.44h1.2c.88 0 1.6.72 1.6 1.6v2.2c.04.24-.16.44-.4.44zm-14.96-.92h14.48v-1.76c0-.36-.32-.68-.68-.68h-.76v.36c0 .76-.64 1.4-1.4 1.4s-1.4-.6-1.4-1.4v-.36h-6.04v.36c0 .76-.64 1.4-1.4 1.4s-1.4-.6-1.4-1.4v-.36H9.4c-.36 0-.68.32-.68.68v1.76z" style="fill:var(--color1, #1b84fa)"/><path fill="#1b84fa" d="M22.56 24.48H9.44c-.88 0-1.6-.72-1.6-1.6v-9.8c0-.24.2-.44.44-.44h15.4c.24 0 .44.2.44.44v9.76c.04.88-.68 1.64-1.56 1.64zM8.76 13.56v9.28c0 .36.32.68.68.68h13.12c.36 0 .68-.32.68-.68v-9.28H8.76zm13.04 9H19c-.24 0-.44-.2-.44-.44v-2.8c0-.24.2-.44.44-.44h2.8c.24 0 .44.2.44.44v2.8c.04.24-.16.44-.44.44zm-2.32-.92h1.88v-1.88h-1.88v1.88zm-2.08.92h-2.8c-.24 0-.44-.2-.44-.44v-2.8c0-.24.2-.44.44-.44h2.8c.24 0 .44.2.44.44v2.8c0 .24-.2.44-.44.44zm-2.32-.92h1.88v-1.88h-1.88v1.88zm-2.12.92h-2.8c-.24 0-.44-.2-.44-.44v-2.8c0-.24.2-.44.44-.44h2.8c.24 0 .44.2.44.44v2.8c.04.24-.16.44-.44.44zm-2.32-.92h1.88v-1.88h-1.88v1.88zm11.16-3.4H19c-.24 0-.44-.2-.44-.44V15c0-.24.2-.44.44-.44h2.8c.24 0 .44.2.44.44v2.8c.04.24-.16.44-.44.44zm-2.32-.92h1.88v-1.88h-1.88v1.88zm-2.08.92h-2.8c-.24 0-.44-.2-.44-.44V15c0-.24.2-.44.44-.44h2.8c.24 0 .44.2.44.44v2.8c0 .24-.2.44-.44.44zm-2.32-.92h1.88v-1.88h-1.88v1.88zm-2.12.92h-2.8c-.24 0-.44-.2-.44-.44V15c0-.24.2-.44.44-.44h2.8c.24 0 .44.2.44.44v2.8c.04.24-.16.44-.44.44zm-2.32-.92h1.88v-1.88h-1.88v1.88z" style="fill:var(--color1, #1b84fa)"/><path fill="#1b84fa" d="M12.96 18.24h-2.8c-.24 0-.44-.2-.44-.44V15c0-.24.2-.44.44-.44h2.8c.24 0 .44.2.44.44v2.8c.04.24-.16.44-.44.44zm-2.32-.92h1.88v-1.88h-1.88v1.88zm6.76.92h-2.8c-.24 0-.44-.2-.44-.44V15c0-.24.2-.44.44-.44h2.8c.24 0 .44.2.44.44v2.8c0 .24-.2.44-.44.44zm-2.32-.92h1.88v-1.88h-1.88v1.88zm6.72.92H19c-.24 0-.44-.2-.44-.44V15c0-.24.2-.44.44-.44h2.8c.24 0 .44.2.44.44v2.8c.04.24-.16.44-.44.44zm-2.32-.92h1.88v-1.88h-1.88v1.88zm-6.52 5.24h-2.8c-.24 0-.44-.2-.44-.44v-2.8c0-.24.2-.44.44-.44h2.8c.24 0 .44.2.44.44v2.8c.04.24-.16.44-.44.44zm-2.32-.92h1.88v-1.88h-1.88v1.88zm6.76.92h-2.8c-.24 0-.44-.2-.44-.44v-2.8c0-.24.2-.44.44-.44h2.8c.24 0 .44.2.44.44v2.8c0 .24-.2.44-.44.44zm-2.32-.92h1.88v-1.88h-1.88v1.88zm6.72.92H19c-.24 0-.44-.2-.44-.44v-2.8c0-.24.2-.44.44-.44h2.8c.24 0 .44.2.44.44v2.8c.04.24-.16.44-.44.44zm-2.32-.92h1.88v-1.88h-1.88v1.88zm-7.88-9.68c-.76 0-1.4-.6-1.4-1.4V8.92c0-.76.64-1.4 1.4-1.4.36 0 .72.16.96.4.28.28.4.6.4.96v1.64c0 .8-.6 1.44-1.36 1.44zm0-3.48c-.24 0-.48.2-.48.48v1.64c0 .24.2.48.48.48s.48-.2.48-.48V8.96c0-.12-.04-.24-.12-.32-.12-.12-.2-.16-.36-.16zm8.8 3.48c-.76 0-1.4-.6-1.4-1.4V8.92c0-.76.64-1.4 1.4-1.4.36 0 .72.16.96.4.28.28.4.6.4.96v1.64c.04.8-.56 1.44-1.36 1.44zm0-3.48c-.24 0-.48.2-.48.48v1.64c0 .24.2.48.48.48.24 0 .48-.2.48-.48V8.96c0-.12-.04-.24-.12-.32-.08-.12-.2-.16-.36-.16z" style="fill:var(--color1, #1b84fa)"/></svg>