<svg xmlns="http://www.w3.org/2000/svg" viewBox="0 0 32 32"><path fill="#1b84fa" d="M17.155 24.863c-.12 0-.24-.04-.32-.12l-3.64-3.64c-.84-.84-1.2-1.96-1.08-3.12l.04-.32c.04-.24.28-.44.52-.4s.44.28.4.52l-.04.32c-.12.88.2 1.72.8 2.36l3 3 .48-3.84c.04-.24.28-.44.52-.4s.44.28.4.52l-.64 4.72c-.04.16-.16.32-.32.36-.04.04-.08.04-.12.04zM19.635 18.223c-.24 0-.44-.16-.44-.4-.04-.24.16-.48.4-.52l3.84-.48-3-3c-.6-.6-1.48-.92-2.36-.8l-.32.04c-.24.04-.48-.16-.52-.4s.16-.48.4-.52l.32-.04c1.16-.16 2.32.24 3.12 1.08l3.64 3.64c.12.12.16.32.12.48s-.2.28-.36.32l-4.76.6h-.08z" style="fill:var(--color1, #1b84fa)"/><path fill="#1b84fa" d="M18.435 20.143c-2.72 0-5.6-1.28-7.8-3.48-2.56-2.56-3.84-6-3.4-9.04.04-.2.2-.36.4-.4 3.04-.44 6.48.84 9.04 3.4s3.84 6 3.4 9.04c-.04.2-.2.36-.4.4-.44.04-.84.08-1.24.08zM8.075 8.103c-.28 2.64.92 5.64 3.16 7.88s5.24 3.44 7.88 3.16c.28-2.64-.92-5.64-3.16-7.88-2.2-2.2-5.2-3.4-7.88-3.16z" style="fill:var(--color1, #1b84fa)"/><path fill="#bcdafd" d="M13.435 12.023a1.44 1.44 0 1 1-2.88 0 1.44 1.44 0 0 1 2.88 0z" style="fill:var(--color2, #bcdafd)"/><path fill="#1b84fa" d="M11.995 13.903c-.52 0-1-.2-1.36-.56-.76-.76-.76-1.96 0-2.68.36-.36.84-.56 1.36-.56s1 .2 1.36.56c.76.76.76 1.96 0 2.68-.4.36-.88.56-1.36.56zm0-2.88c-.28 0-.52.12-.68.28-.4.4-.4 1 0 1.4.36.36 1.04.36 1.4 0 .4-.4.4-1 0-1.4-.24-.16-.48-.28-.72-.28z" style="fill:var(--color1, #1b84fa)"/><path fill="#bcdafd" d="M22.515 20.823c.48.48.64 2.32.64 2.32s-1.88-.16-2.32-.64c-.48-.48-.48-1.24 0-1.72.44-.44 1.2-.44 1.68.04z" style="fill:var(--color2, #bcdafd)"/><path fill="#1b84fa" d="M23.115 23.623c-.52-.04-2.12-.2-2.64-.76-.64-.64-.64-1.72 0-2.36s1.72-.64 2.36 0c.56.56.72 2.16.76 2.64 0 .12-.04.28-.12.36-.12.08-.24.12-.36.12zm-1.48-2.68c-.2 0-.4.08-.52.2-.28.28-.28.76 0 1.04.16.16.8.32 1.48.44-.08-.68-.28-1.32-.44-1.48a.76.76 0 0 0-.52-.2z" style="fill:var(--color1, #1b84fa)"/></svg>